<?xml version="1.0" encoding="utf-8"?>
<!-- Generator: Adobe Illustrator 25.0.1, SVG Export Plug-In . SVG Version: 6.00 Build 0)  -->
<svg version="1.0" id="Layer_1" xmlns="http://www.w3.org/2000/svg" xmlns:xlink="http://www.w3.org/1999/xlink" x="0px" y="0px"
	 width="207px" height="207px" viewBox="0 0 207 207" enable-background="new 0 0 207 207" xml:space="preserve">
<g>
	<path fill-rule="evenodd" clip-rule="evenodd" fill="#00ACD7" d="M16.2,88.6c-0.4,0-0.5-0.2-0.3-0.5l2.1-2.7
		c0.2-0.3,0.7-0.5,1.1-0.5h35.7c0.4,0,0.5,0.3,0.3,0.6l-1.7,2.6c-0.2,0.3-0.7,0.6-1,0.6L16.2,88.6z"/>
	<path fill-rule="evenodd" clip-rule="evenodd" fill="#00ACD7" d="M1.1,97.8c-0.4,0-0.5-0.2-0.3-0.5l2.1-2.7
		c0.2-0.3,0.7-0.5,1.1-0.5h45.6c0.4,0,0.6,0.3,0.5,0.6l-0.8,2.4c-0.1,0.4-0.5,0.6-0.9,0.6L1.1,97.8z"/>
	<path fill-rule="evenodd" clip-rule="evenodd" fill="#00ACD7" d="M25.3,107c-0.4,0-0.5-0.3-0.3-0.6l1.4-2.5c0.2-0.3,0.6-0.6,1-0.6
		h20c0.4,0,0.6,0.3,0.6,0.7l-0.2,2.4c0,0.4-0.4,0.7-0.7,0.7L25.3,107z"/>
	<g transform="translate(55)">
		<path fill-rule="evenodd" clip-rule="evenodd" fill="#00ACD7" d="M74.1,86.8c-6.3,1.6-10.6,2.8-16.8,4.4c-1.5,0.4-1.6,0.5-2.9-1
			c-1.5-1.7-2.6-2.8-4.7-3.8c-6.3-3.1-12.4-2.2-18.1,1.5c-6.8,4.4-10.3,10.9-10.2,19c0.1,8,5.6,14.6,13.5,15.7
			c6.8,0.9,12.5-1.5,17-6.6c0.9-1.1,1.7-2.3,2.7-3.7c-3.6,0-8.1,0-19.3,0c-2.1,0-2.6-1.3-1.9-3c1.3-3.1,3.7-8.3,5.1-10.9
			c0.3-0.6,1-1.6,2.5-1.6h36.4c-0.2,2.7-0.2,5.4-0.6,8.1c-1.1,7.2-3.8,13.8-8.2,19.6c-7.2,9.5-16.6,15.4-28.5,17
			c-9.8,1.3-18.9-0.6-26.9-6.6c-7.4-5.6-11.6-13-12.7-22.2C-0.8,101.8,2.4,92,9,83.4c7.1-9.3,16.5-15.2,28-17.3
			c9.4-1.7,18.4-0.6,26.5,4.9c5.3,3.5,9.1,8.3,11.6,14.1C75.7,86,75.3,86.5,74.1,86.8z"/>
		<path fill="#00ACD7" d="M107.2,142.1c-9.1-0.2-17.4-2.8-24.4-8.8c-5.9-5.1-9.6-11.6-10.8-19.3c-1.8-11.3,1.3-21.3,8.1-30.2
			c7.3-9.6,16.1-14.6,28-16.7c10.2-1.8,19.8-0.8,28.5,5.1c7.9,5.4,12.8,12.7,14.1,22.3c1.7,13.5-2.2,24.5-11.5,33.9
			c-6.6,6.7-14.7,10.9-24,12.8C112.5,141.7,109.8,141.8,107.2,142.1z M131,101.7c-0.1-1.3-0.1-2.3-0.3-3.3
			c-1.8-9.9-10.9-15.5-20.4-13.3c-9.3,2.1-15.3,8-17.5,17.4c-1.8,7.8,2,15.7,9.2,18.9c5.5,2.4,11,2.1,16.3-0.6
			C126.2,116.7,130.5,110.3,131,101.7L131,101.7z"/>
	</g>
</g>
</svg>
