<?xml version="1.0" encoding="utf-8"?>
<!-- Generator: Adobe Illustrator 25.0.1, SVG Export Plug-In . SVG Version: 6.00 Build 0)  -->
<svg version="1.1" id="レイヤー_1" xmlns="http://www.w3.org/2000/svg" xmlns:xlink="http://www.w3.org/1999/xlink" x="0px"
	 y="0px" width="16px" height="16px" viewBox="0 0 16 16" enable-background="new 0 0 16 16" xml:space="preserve">
<path fill-rule="evenodd" clip-rule="evenodd" fill="#F6D2A2" stroke="#000000" stroke-width="0.15" stroke-linecap="round" d="
	M3.2,8.4c0,0.4,0.4,0.2,0.6,0.1c0.2-0.1,0.2,0,0.2-0.3c0-0.2,0-0.3,0-0.5c-0.3,0-0.6,0-0.8,0.2C3.2,8,3,8.3,3.2,8.4"/>
<path fill-rule="evenodd" clip-rule="evenodd" fill="#C6B198" stroke="#000000" stroke-width="0.15" stroke-linecap="round" d="
	M3.2,8.4c0.1,0,0.1,0,0.2-0.1"/>
<path fill-rule="evenodd" clip-rule="evenodd" fill="#6AD7E5" stroke="#000000" stroke-width="0.15" stroke-linecap="round" d="
	M4.2,3.4C2.6,3,3.8,1,5,1.8L4.2,3.4z"/>
<path fill-rule="evenodd" clip-rule="evenodd" fill="#6AD7E5" stroke="#000000" stroke-width="0.15" stroke-linecap="round" d="
	M11.2,1.6c1.3-0.9,2.4,1.1,0.9,1.6L11.2,1.6z"/>
<path fill-rule="evenodd" clip-rule="evenodd" fill="#F6D2A2" stroke="#000000" stroke-width="0.15" stroke-linecap="round" d="
	M11.5,13.5c0.3,0.2,0.9,0.8,0.4,1.1c-0.5,0.4-0.7-0.5-1.1-0.6C11,13.7,11.2,13.5,11.5,13.5z"/>
<path fill="none" stroke="#000000" stroke-width="0.15" stroke-linecap="round" d="M11.9,14.6c-0.1-0.1-0.1-0.3-0.2-0.4"/>
<path fill-rule="evenodd" clip-rule="evenodd" fill="#F6D2A2" stroke="#000000" stroke-width="0.15" stroke-linecap="round" d="
	M5.8,14.2c-0.4,0.1-0.6,0.4-0.9,0.6c-0.3,0.2-0.4-0.1-0.4-0.1c0,0,0,0-0.1-0.1c-0.3-0.4,0.3-0.7,0.6-1C5.3,13.5,5.6,13.9,5.8,14.2z"
	/>
<path fill="none" stroke="#000000" stroke-width="0.15" stroke-linecap="round" d="M4.5,14.6c0-0.2,0.1-0.3,0.2-0.4"/>
<path fill-rule="evenodd" clip-rule="evenodd" d="M4.2,2.9C4,2.8,3.9,2.6,4,2.4c0.1-0.2,0.3-0.2,0.5-0.1L4.2,2.9z"/>
<path fill-rule="evenodd" clip-rule="evenodd" d="M11.6,2.7c0.2-0.1,0.4-0.3,0.2-0.5C11.7,2,11.5,2,11.3,2.1L11.6,2.7z"/>
<path fill-rule="evenodd" clip-rule="evenodd" fill="#F6D2A2" stroke="#000000" stroke-width="0.15" stroke-linecap="round" d="
	M13.3,8.3c0,0.4-0.4,0.2-0.6,0.1c-0.2-0.1-0.2,0-0.2-0.3c0-0.2,0-0.3,0-0.5c0.3,0,0.6,0,0.8,0.2C13.3,8,13.5,8.2,13.3,8.3"/>
<path fill-rule="evenodd" clip-rule="evenodd" fill="#C6B198" stroke="#000000" stroke-width="0.15" stroke-linecap="round" d="
	M13.3,8.3c-0.1,0-0.1,0-0.2-0.1"/>
<g>
	<path fill-rule="evenodd" clip-rule="evenodd" fill="#6AD7E5" stroke="#000000" stroke-width="0.15" stroke-linecap="round" d="
		M8.1,0.8c1.6,0,3.1,0.2,3.9,1.8c0.7,1.7,0.4,3.6,0.6,5.4c0.1,1.6,0.3,3.4-0.4,4.8c-0.8,1.5-2.7,1.9-4.2,1.8c-1.2,0-2.7-0.4-3.4-1.6
		C3.6,11.7,4,9.7,4.1,8.3c0.1-1.7-0.5-3.5,0.1-5.2C4.8,1.3,6.4,0.9,8.1,0.8"/>
</g>
<path fill-rule="evenodd" clip-rule="evenodd" fill="#FFFFFF" stroke="#000000" stroke-width="0.15" stroke-linecap="round" d="
	M8.4,2.9c0.3,1.7,3,1.2,2.6-0.5C10.6,1,8.3,1.4,8.4,2.9"/>
<path fill-rule="evenodd" clip-rule="evenodd" fill="#FFFFFF" stroke="#000000" stroke-width="0.15" stroke-linecap="round" d="
	M5.1,3.2c0.4,1.4,2.7,1.1,2.6-0.4C7.6,1.1,4.8,1.4,5.1,3.2"/>
<path fill-rule="evenodd" clip-rule="evenodd" fill="#FFFFFF" stroke="#000000" stroke-width="0.15" stroke-linecap="round" d="
	M8.7,4.9c0,0.2,0,0.5,0,0.7C8.6,5.7,8.5,5.7,8.4,5.8c-0.1,0-0.2-0.1-0.3-0.2c0-0.3,0-0.5,0-0.8L8.7,4.9z"/>
<g>
	<ellipse fill-rule="evenodd" clip-rule="evenodd" cx="5.8" cy="3" rx="0.4" ry="0.4"/>
	<ellipse fill-rule="evenodd" clip-rule="evenodd" fill="#FFFFFF" cx="5.9" cy="3.1" rx="0.1" ry="0.1"/>
</g>
<g>
	<ellipse fill-rule="evenodd" clip-rule="evenodd" cx="9" cy="2.9" rx="0.4" ry="0.4"/>
	<ellipse fill-rule="evenodd" clip-rule="evenodd" fill="#FFFFFF" cx="9.2" cy="3" rx="0.1" ry="0.1"/>
</g>
<path fill-rule="evenodd" clip-rule="evenodd" fill="#FFFFFF" stroke="#000000" stroke-width="0.15" stroke-linecap="round" d="
	M7.6,4.9C7.4,5.3,7.7,6.1,8.1,5.5c0-0.3,0-0.5,0-0.8L7.6,4.9z"/>
<g>
	<path fill-rule="evenodd" clip-rule="evenodd" fill="#F6D2A2" stroke="#231F20" stroke-width="0.15" stroke-linecap="round" d="
		M7.6,4.1C7.3,4.1,7,4.5,7.2,4.8c0.2,0.4,0.7,0,1,0c0.4,0,0.6,0.4,0.9,0.1C9.5,4.5,9,4.2,8.7,4.1L7.6,4.1z"/>
	<path fill-rule="evenodd" clip-rule="evenodd" d="M7.6,4.1c0-0.6,1-0.6,1.2-0.2C8.9,4.4,7.6,4.5,7.6,4.1C7.5,3.8,7.6,4.1,7.6,4.1z"
		/>
</g>
</svg>
