<?xml version="1.0" encoding="utf-8"?>
<!-- Generator: Adobe Illustrator 25.0.1, SVG Export Plug-In . SVG Version: 6.00 Build 0)  -->
<svg version="1.1" id="Layer_1" xmlns="http://www.w3.org/2000/svg" xmlns:xlink="http://www.w3.org/1999/xlink" x="0px" y="0px"
	 width="16px" height="16px" viewBox="0 0 16 16" enable-background="new 0 0 16 16" xml:space="preserve">
<g>
	<polygon fill-rule="evenodd" clip-rule="evenodd" fill="#6AD7E5" fill-opacity="0.8" points="1,16 16,16 16,9 1,9 	"/>
	<polygon fill-rule="evenodd" clip-rule="evenodd" fill="#9AA7B0" fill-opacity="0.8" points="7,1 3,5 7,5 	"/>
	<polygon fill-rule="evenodd" clip-rule="evenodd" fill="#9AA7B0" fill-opacity="0.8" points="8,1 8,6 3,6 3,8 13,8 13,1 	"/>
	<path fill-rule="evenodd" clip-rule="evenodd" fill="#231F20" fill-opacity="0.7" d="M9.5,10.8c-0.1,0-0.8,0-1.2,0.4
		c-0.4,0.4-0.4,1-0.4,1.2c0,0.2,0,0.8,0.5,1.3c0.5,0.5,1.1,0.5,1.3,0.4c0.2,0,0.7-0.1,1.1-0.5c0.4-0.5,0.4-1,0.4-1.2
		c0-0.1,0-0.7-0.5-1.2C10.2,10.8,9.7,10.8,9.5,10.8z M9.5,10c1.5,0,2.5,1.1,2.5,2.5S11,15,9.5,15S7,13.9,7,12.5C7,11,8,10,9.5,10z"
		/>
	<path fill-rule="evenodd" clip-rule="evenodd" fill="#231F20" fill-opacity="0.7" d="M4.5,15C3,15,2,13.9,2,12.5v0
		c0-1.4,1-2.5,2.5-2.5c0.8,0,1.4,0.2,1.9,0.7l-0.5,0.6c-0.4-0.3-0.7-0.5-1.4-0.5c-0.9,0-1.6,0.8-1.6,1.7v0c0,1,0.7,1.7,1.6,1.7
		c0.5,0,0.9-0.1,1.2-0.4V13H4.5v-0.7h2.1v2C6.1,14.7,5.4,15,4.5,15z"/>
</g>
</svg>
